<svg xmlns="http://www.w3.org/2000/svg" style="display: none;">
  <!-- Send Icon -->
  <symbol id="icon-send" viewBox="0 0 24 24">
    <path fill="currentColor" d="M2.01 21L23 12 2.01 3 2 10l15 2-15 2z"/>
  </symbol>
  
  <!-- Next/Refresh Icon -->
  <symbol id="icon-next" viewBox="0 0 24 24">
    <path fill="currentColor" d="M17.65 6.35C16.2 4.9 14.21 4 12 4c-4.42 0-7.99 3.58-7.99 8s3.57 8 7.99 8c3.73 0 6.84-2.55 7.73-6h-2.08c-.82 2.33-3.04 4-5.65 4-3.31 0-6-2.69-6-6s2.69-6 6-6c1.66 0 3.14.69 4.22 1.78L13 11h7V4l-2.35 2.35z"/>
  </symbol>
  
  <!-- Theme Toggle Icon (Sun) -->
  <symbol id="icon-sun" viewBox="0 0 24 24">
    <path fill="currentColor" d="M6.76 4.84l-1.8-1.79-1.41 1.41 1.79 1.79 1.42-1.41zM4 10.5H1v2h3v-2zm9-9.95h-2V3.5h2V.55zm7.45 3.91l-1.41-1.41-1.79 1.79 1.41 1.41 1.79-1.79zm-3.21 13.7l1.79 1.8 1.41-1.41-1.8-1.79-1.4 1.4zM20 10.5v2h3v-2h-3zm-8-5c-3.31 0-6 2.69-6 6s2.69 6 6 6 6-2.69 6-6-2.69-6-6-6zm-1 16.95h2V19.5h-2v2.95zm-7.45-3.91l1.41 1.41 1.79-1.8-1.41-1.41-1.79 1.8z"/>
  </symbol>
  
  <!-- Theme Toggle Icon (Moon) -->
  <symbol id="icon-moon" viewBox="0 0 24 24">
    <path fill="currentColor" d="M12 3c-4.97 0-9 4.03-9 9s4.03 9 9 9 9-4.03 9-9c0-.46-.04-.92-.1-1.36-.98 1.37-2.58 2.26-4.4 2.26-3.03 0-5.5-2.47-5.5-5.5 0-1.82.89-3.42 2.26-4.4-.44-.06-.9-.1-1.36-.1z"/>
  </symbol>
  
  <!-- User Icon -->
  <symbol id="icon-user" viewBox="0 0 24 24">
    <path fill="currentColor" d="M12 12c2.21 0 4-1.79 4-4s-1.79-4-4-4-4 1.79-4 4 1.79 4 4 4zm0 2c-2.67 0-8 1.34-8 4v2h16v-2c0-2.66-5.33-4-8-4z"/>
  </symbol>
  
  <!-- Chat Bubble Icon -->
  <symbol id="icon-chat" viewBox="0 0 24 24">
    <path fill="currentColor" d="M20 2H4c-1.1 0-2 .9-2 2v18l4-4h14c1.1 0 2-.9 2-2V4c0-1.1-.9-2-2-2z"/>
  </symbol>
</svg>
